<svg xmlns:xlink="http://www.w3.org/1999/xlink" xmlns="http://www.w3.org/2000/svg" width="23" height="29.307" viewBox="0 0 23 29.307">
  <path id="Subtraction_1" data-name="Subtraction 1" d="M10.989,28.025h0l-.857-1.046L11,28l1.089-1.284v.02l-1.1,1.289Zm1.1-1.312v0l-.019-.623-.056-1.913q-.056-1.913-.111-3.827c-.011-.386-.008-.774-.005-1.185v-.2c0-.139,0-.281,0-.428.227,0,.459,0,.646.005.242,0,.429,0,.608,0,.3,0,.541-.005.766-.017.916-.047,1.234-.342,1.361-1.265.007-.051.015-.1.023-.152l0-.019c.012-.072.024-.147.031-.22l.446-4.258,0-.038q.216-2.075.434-4.152a.986.986,0,0,0-.654-1.143,3.634,3.634,0,0,0-1.157-.2C13.29,7.064,12.173,7.06,11,7.06c-.7,0-1.4,0-2.09,0H8.267l-.682,0a4.32,4.32,0,0,0-.834.088,1.1,1.1,0,0,0-.975,1.265l.138,1.288.028.262c.264,2.468.536,5.02.789,7.535a.857.857,0,0,0,.635.84,6,6,0,0,0,1.206.194c.179.012.371.017.607.017l.338,0,.116,0c.176,0,.322,0,.461,0,0,.046.006.087.009.124l0,.031v.015a1.89,1.89,0,0,1,.009.2l-.221,7.777-.039-.047-.008,0L2.565,18.052C2.517,18,2.218,17.6,2.216,17.6a11,11,0,1,1,17.569,0c0,.007-.3.394-.346.45l-7.347,8.664ZM8.773,16.265H8.764a.409.409,0,0,1-.435-.434c-.011-.214-.023-.429-.035-.644l-.013-.24c-.015-.275-.03-.56-.043-.84q-.062-1.4-.121-2.792-.031-.7-.06-1.4H8.032c0-.015,0-.03,0-.045s0-.032,0-.046c0-.067,0-.135,0-.2a.551.551,0,0,1,.114-.415.428.428,0,0,1,.319-.122h.011c.333,0,.417.266.428.489.032.586.065,1.23.1,1.97q.1,2,.188,3.991c0,.095.008.2,0,.3A.4.4,0,0,1,8.773,16.265Zm4.462,0H13.23a.417.417,0,0,1-.315-.112.612.612,0,0,1-.115-.464l.076-1.552v-.025q.074-1.5.147-3c.024-.5.044-1,.059-1.38.012-.323.055-.616.448-.644h.036a.326.326,0,0,1,.244.094.83.83,0,0,1,.149.593c0,.029,0,.058,0,.087v.111h-.018q-.017.373-.035.747v.01l0,.035q-.017.362-.034.723l0,.022-.036.762c-.053,1.136-.109,2.311-.159,3.466C13.659,16.1,13.524,16.26,13.235,16.262Zm-2.205-.021h-.01a.621.621,0,0,1-.4-.268.6.6,0,0,1-.049-.341v-.005c0-.031,0-.06,0-.087,0-1.813,0-3.757,0-5.685,0-.036,0-.073,0-.11-.005-.3-.011-.6.41-.656a.5.5,0,0,1,.062,0c.265,0,.384.24.386.778,0,.611,0,1.269,0,2.012V13.4c0,.852,0,1.535,0,2.15,0,.028,0,.057,0,.085a.683.683,0,0,1-.05.349A.536.536,0,0,1,11.03,16.241Z" transform="translate(0.5 0.5)" fill="#262626" stroke="rgba(0,0,0,0)" stroke-miterlimit="10" stroke-width="1"/>
</svg>